STARTFONT 2.1
COMMENT Recovered from hl12bi.qfasl (MIT CADR System 46 serialized QFASL FONT object)
FONT MIT-CADR-QFASL-HL12BI
SIZE 14 72 72
FONTBOUNDINGBOX 16 14 0 -3
STARTPROPERTIES 2
FONT_ASCENT 11
FONT_DESCENT 3
ENDPROPERTIES
CHARS 128
STARTCHAR C0000
ENCODING -1 0
SWIDTH 71 0
DWIDTH 1 0
BBX 16 14 0 -3
BITMAP
0000
0000
0000
0000
0000
0000
0000
0000
0000
0000
0000
0000
0000
0000
ENDCHAR
STARTCHAR C0001
ENCODING -1 1
SWIDTH 71 0
DWIDTH 1 0
BBX 16 14 0 -3
BITMAP
0000
0000
0000
0000
0000
0000
0000
0000
0000
0000
0000
0000
0000
0000
ENDCHAR
STARTCHAR C0002
ENCODING -1 2
SWIDTH 71 0
DWIDTH 1 0
BBX 16 14 0 -3
BITMAP
0000
0000
0000
0000
0000
0000
0000
0000
0000
0000
0000
0000
0000
0000
ENDCHAR
STARTCHAR C0003
ENCODING -1 3
SWIDTH 71 0
DWIDTH 1 0
BBX 16 14 0 -3
BITMAP
0000
0000
0000
0000
0000
0000
0000
0000
0000
0000
0000
0000
0000
0000
ENDCHAR
STARTCHAR C0004
ENCODING -1 4
SWIDTH 71 0
DWIDTH 1 0
BBX 16 14 0 -3
BITMAP
0000
0000
0000
0000
0000
0000
0000
0000
0000
0000
0000
0000
0000
0000
ENDCHAR
STARTCHAR C0005
ENCODING -1 5
SWIDTH 71 0
DWIDTH 1 0
BBX 16 14 0 -3
BITMAP
0000
0000
0000
0000
0000
0000
0000
0000
0000
0000
0000
0000
0000
0000
ENDCHAR
STARTCHAR C0006
ENCODING -1 6
SWIDTH 71 0
DWIDTH 1 0
BBX 16 14 0 -3
BITMAP
0000
0000
0000
0000
0000
0000
0000
0000
0000
0000
0000
0000
0000
0000
ENDCHAR
STARTCHAR C0007
ENCODING -1 7
SWIDTH 71 0
DWIDTH 1 0
BBX 16 14 0 -3
BITMAP
0000
0000
0000
0000
0000
0000
0000
0000
0000
0000
0000
0000
0000
0000
ENDCHAR
STARTCHAR C0008
ENCODING -1 8
SWIDTH 71 0
DWIDTH 1 0
BBX 16 14 0 -3
BITMAP
0000
0000
0000
0000
0000
0000
0000
0000
0000
0000
0000
0000
0000
0000
ENDCHAR
STARTCHAR C0009
ENCODING -1 9
SWIDTH 71 0
DWIDTH 1 0
BBX 16 14 0 -3
BITMAP
0000
0000
0000
0000
0000
0000
0000
0000
0000
0000
0000
0000
0000
0000
ENDCHAR
STARTCHAR C000A
ENCODING -1 10
SWIDTH 71 0
DWIDTH 1 0
BBX 16 14 0 -3
BITMAP
0000
0000
0000
0000
0000
0000
0000
0000
0000
0000
0000
0000
0000
0000
ENDCHAR
STARTCHAR C000B
ENCODING -1 11
SWIDTH 71 0
DWIDTH 1 0
BBX 16 14 0 -3
BITMAP
0000
0000
0000
0000
0000
0000
0000
0000
0000
0000
0000
0000
0000
0000
ENDCHAR
STARTCHAR C000C
ENCODING -1 12
SWIDTH 71 0
DWIDTH 1 0
BBX 16 14 0 -3
BITMAP
0000
0000
0000
0000
0000
0000
0000
0000
0000
0000
0000
0000
0000
0000
ENDCHAR
STARTCHAR C000D
ENCODING -1 13
SWIDTH 71 0
DWIDTH 1 0
BBX 16 14 0 -3
BITMAP
0000
0000
0000
0000
0000
0000
0000
0000
0000
0000
0000
0000
0000
0000
ENDCHAR
STARTCHAR C000E
ENCODING -1 14
SWIDTH 71 0
DWIDTH 1 0
BBX 16 14 0 -3
BITMAP
0000
0000
0000
0000
0000
0000
0000
0000
0000
0000
0000
0000
0000
0000
ENDCHAR
STARTCHAR C000F
ENCODING -1 15
SWIDTH 71 0
DWIDTH 1 0
BBX 16 14 0 -3
BITMAP
0000
0000
0000
0000
0000
0000
0000
0000
0000
0000
0000
0000
0000
0000
ENDCHAR
STARTCHAR C0010
ENCODING -1 16
SWIDTH 71 0
DWIDTH 1 0
BBX 16 14 0 -3
BITMAP
0000
0000
0000
0000
0000
0000
0000
0000
0000
0000
0000
0000
0000
0000
ENDCHAR
STARTCHAR C0011
ENCODING -1 17
SWIDTH 71 0
DWIDTH 1 0
BBX 16 14 0 -3
BITMAP
0000
0000
0000
0000
0000
0000
0000
0000
0000
0000
0000
0000
0000
0000
ENDCHAR
STARTCHAR C0012
ENCODING -1 18
SWIDTH 71 0
DWIDTH 1 0
BBX 16 14 0 -3
BITMAP
0000
0000
0000
0000
0000
0000
0000
0000
0000
0000
0000
0000
0000
0000
ENDCHAR
STARTCHAR C0013
ENCODING -1 19
SWIDTH 71 0
DWIDTH 1 0
BBX 16 14 0 -3
BITMAP
0000
0000
0000
0000
0000
0000
0000
0000
0000
0000
0000
0000
0000
0000
ENDCHAR
STARTCHAR C0014
ENCODING -1 20
SWIDTH 71 0
DWIDTH 1 0
BBX 16 14 0 -3
BITMAP
0000
0000
0000
0000
0000
0000
0000
0000
0000
0000
0000
0000
0000
0000
ENDCHAR
STARTCHAR C0015
ENCODING -1 21
SWIDTH 71 0
DWIDTH 1 0
BBX 16 14 0 -3
BITMAP
0000
0000
0000
0000
0000
0000
0000
0000
0000
0000
0000
0000
0000
0000
ENDCHAR
STARTCHAR C0016
ENCODING -1 22
SWIDTH 71 0
DWIDTH 1 0
BBX 16 14 0 -3
BITMAP
0000
0000
0000
0000
0000
0000
0000
0000
0000
0000
0000
0000
0000
0000
ENDCHAR
STARTCHAR C0017
ENCODING -1 23
SWIDTH 71 0
DWIDTH 1 0
BBX 16 14 0 -3
BITMAP
0000
0000
0000
0000
0000
0000
0000
0000
0000
0000
0000
0000
0000
0000
ENDCHAR
STARTCHAR C0018
ENCODING -1 24
SWIDTH 71 0
DWIDTH 1 0
BBX 16 14 0 -3
BITMAP
0000
0000
0000
0000
0000
0000
0000
0000
0000
0000
0000
0000
7FFF
0000
ENDCHAR
STARTCHAR C0019
ENCODING -1 25
SWIDTH 71 0
DWIDTH 1 0
BBX 16 14 0 -3
BITMAP
0000
0000
0000
0000
0000
0000
0000
0000
0000
0000
0000
0000
0000
0000
ENDCHAR
STARTCHAR C001A
ENCODING -1 26
SWIDTH 71 0
DWIDTH 1 0
BBX 16 14 0 -3
BITMAP
0000
0000
0000
0000
0000
0000
0000
0000
0000
0000
0000
0000
0000
0000
ENDCHAR
STARTCHAR C001B
ENCODING -1 27
SWIDTH 71 0
DWIDTH 1 0
BBX 16 14 0 -3
BITMAP
0000
0000
0000
0000
0000
0000
0000
0000
0000
0000
0000
0000
0000
0000
ENDCHAR
STARTCHAR C001C
ENCODING -1 28
SWIDTH 71 0
DWIDTH 1 0
BBX 16 14 0 -3
BITMAP
0000
0000
0000
0000
0000
0000
0000
0000
0000
0000
0000
0000
0000
0000
ENDCHAR
STARTCHAR C001D
ENCODING -1 29
SWIDTH 71 0
DWIDTH 1 0
BBX 16 14 0 -3
BITMAP
0000
0000
0000
0000
0000
0000
0000
0000
0000
0000
0000
0000
0000
0000
ENDCHAR
STARTCHAR C001E
ENCODING -1 30
SWIDTH 71 0
DWIDTH 1 0
BBX 16 14 0 -3
BITMAP
0000
0000
0000
0000
0000
0000
0000
0000
0000
0000
0000
0000
0000
0000
ENDCHAR
STARTCHAR C001F
ENCODING -1 31
SWIDTH 71 0
DWIDTH 1 0
BBX 16 14 0 -3
BITMAP
0000
0000
0000
0000
0000
0000
0000
0000
0000
0000
0000
0000
0000
0000
ENDCHAR
STARTCHAR C0020
ENCODING -1 32
SWIDTH 500 0
DWIDTH 7 0
BBX 16 14 0 -3
BITMAP
0000
0000
0000
0000
0000
0000
0000
0000
0000
0000
0000
0000
0000
0000
ENDCHAR
STARTCHAR C0021
ENCODING -1 33
SWIDTH 429 0
DWIDTH 6 0
BBX 16 14 0 -3
BITMAP
0000
0C00
0C00
0C00
1800
1800
1800
1800
0000
3000
3000
0000
0000
0000
ENDCHAR
STARTCHAR C0022
ENCODING -1 34
SWIDTH 571 0
DWIDTH 8 0
BBX 16 14 0 -3
BITMAP
0000
1B00
1B00
3600
3600
0000
0000
0000
0000
0000
0000
0000
0000
0000
ENDCHAR
STARTCHAR C0023
ENCODING -1 35
SWIDTH 786 0
DWIDTH 11 0
BBX 16 14 0 -3
BITMAP
0000
0360
0360
06C0
1FE0
0D80
0D80
3FC0
1B00
3600
3600
0000
0000
0000
ENDCHAR
STARTCHAR C0024
ENCODING -1 36
SWIDTH 857 0
DWIDTH 12 0
BBX 16 14 0 -3
BITMAP
0180
07E0
0DB0
19B0
1B00
0F80
03C0
0360
3660
36C0
1F80
0600
0000
0000
ENDCHAR
STARTCHAR C0025
ENCODING -1 37
SWIDTH 1071 0
DWIDTH 15 0
BBX 16 14 0 -3
BITMAP
0000
0F18
19B0
31E0
3360
1EC0
01BC
0366
03C6
06CC
0C78
0000
0000
0000
ENDCHAR
STARTCHAR C0026
ENCODING -1 38
SWIDTH 857 0
DWIDTH 12 0
BBX 16 14 0 -3
BITMAP
0000
0780
0CC0
0CC0
0780
0F00
1B60
31C0
30C0
31E0
1F30
0000
0000
0000
ENDCHAR
STARTCHAR C0027
ENCODING -1 39
SWIDTH 357 0
DWIDTH 5 0
BBX 16 14 0 -3
BITMAP
0000
1800
1800
3000
3000
0000
0000
0000
0000
0000
0000
0000
0000
0000
ENDCHAR
STARTCHAR C0028
ENCODING -1 40
SWIDTH 571 0
DWIDTH 8 0
BBX 16 14 0 -3
BITMAP
0000
0300
0600
0C00
1800
1800
3000
3000
3000
3000
3000
3000
1800
1800
ENDCHAR
STARTCHAR C0029
ENCODING -1 41
SWIDTH 571 0
DWIDTH 8 0
BBX 16 14 0 -3
BITMAP
0000
0600
0600
0300
0300
0300
0300
0300
0300
0600
0600
0C00
1800
3000
ENDCHAR
STARTCHAR C002A
ENCODING -1 42
SWIDTH 571 0
DWIDTH 8 0
BBX 16 14 0 -3
BITMAP
0000
0C00
3F00
1E00
3F00
0C00
0000
0000
0000
0000
0000
0000
0000
0000
ENDCHAR
STARTCHAR C002B
ENCODING -1 43
SWIDTH 643 0
DWIDTH 9 0
BBX 16 14 0 -3
BITMAP
0000
0000
0000
0000
0600
0600
0600
3F80
0C00
0C00
0C00
0000
0000
0000
ENDCHAR
STARTCHAR C002C
ENCODING -1 44
SWIDTH 357 0
DWIDTH 5 0
BBX 16 14 0 -3
BITMAP
0000
0000
0000
0000
0000
0000
0000
0000
0000
3800
1800
1800
7000
0000
ENDCHAR
STARTCHAR C002D
ENCODING -1 45
SWIDTH 571 0
DWIDTH 8 0
BBX 16 14 0 -3
BITMAP
0000
0000
0000
0000
0000
0000
3F00
0000
0000
0000
0000
0000
0000
0000
ENDCHAR
STARTCHAR C002E
ENCODING -1 46
SWIDTH 357 0
DWIDTH 5 0
BBX 16 14 0 -3
BITMAP
0000
0000
0000
0000
0000
0000
0000
0000
0000
0000
0000
0000
0000
0000
ENDCHAR
STARTCHAR C002F
ENCODING -1 47
SWIDTH 714 0
DWIDTH 10 0
BBX 16 14 0 -3
BITMAP
0000
00C0
0180
0180
0300
0600
0600
0C00
1800
1800
3000
0000
0000
0000
ENDCHAR
STARTCHAR C0030
ENCODING -1 48
SWIDTH 714 0
DWIDTH 10 0
BBX 16 14 0 -3
BITMAP
0000
0700
1D80
18C0
30C0
30C0
30C0
30C0
3180
1B80
0E00
0000
0000
0000
ENDCHAR
STARTCHAR C0031
ENCODING -1 49
SWIDTH 714 0
DWIDTH 10 0
BBX 16 14 0 -3
BITMAP
0000
0380
0780
0D80
1B00
0300
0300
0300
0600
0600
0600
0000
0000
0000
ENDCHAR
STARTCHAR C0032
ENCODING -1 50
SWIDTH 714 0
DWIDTH 10 0
BBX 16 14 0 -3
BITMAP
0000
0780
0CC0
18C0
18C0
0180
0700
0C00
1800
3000
3FC0
0000
0000
0000
ENDCHAR
STARTCHAR C0033
ENCODING -1 51
SWIDTH 714 0
DWIDTH 10 0
BBX 16 14 0 -3
BITMAP
0000
0780
0CC0
18C0
0180
0F00
0180
0180
3180
3300
1E00
0000
0000
0000
ENDCHAR
STARTCHAR C0034
ENCODING -1 52
SWIDTH 714 0
DWIDTH 10 0
BBX 16 14 0 -3
BITMAP
0000
01C0
01C0
03C0
06C0
0D80
1980
3180
3FC0
0300
0300
0000
0000
0000
ENDCHAR
STARTCHAR C0035
ENCODING -1 53
SWIDTH 714 0
DWIDTH 10 0
BBX 16 14 0 -3
BITMAP
0000
0FC0
0C00
1800
1F00
3180
3180
0180
3180
3300
1E00
0000
0000
0000
ENDCHAR
STARTCHAR C0036
ENCODING -1 54
SWIDTH 714 0
DWIDTH 10 0
BBX 16 14 0 -3
BITMAP
0000
0780
0CC0
1800
1F80
3CC0
30C0
30C0
30C0
1980
0F00
0000
0000
0000
ENDCHAR
STARTCHAR C0037
ENCODING -1 55
SWIDTH 714 0
DWIDTH 10 0
BBX 16 14 0 -3
BITMAP
0000
1FC0
00C0
0180
0300
0600
0600
0C00
0C00
1800
1800
0000
0000
0000
ENDCHAR
STARTCHAR C0038
ENCODING -1 56
SWIDTH 714 0
DWIDTH 10 0
BBX 16 14 0 -3
BITMAP
0000
0780
0CC0
0CC0
0CC0
0F80
18C0
30C0
30C0
3180
1F00
0000
0000
0000
ENDCHAR
STARTCHAR C0039
ENCODING -1 57
SWIDTH 714 0
DWIDTH 10 0
BBX 16 14 0 -3
BITMAP
0000
0F00
1980
30C0
30C0
30C0
18C0
0FC0
0180
3180
1F00
0000
0000
0000
ENDCHAR
STARTCHAR C003A
ENCODING -1 58
SWIDTH 357 0
DWIDTH 5 0
BBX 16 14 0 -3
BITMAP
0000
0000
0000
0000
1800
1800
0000
0000
0000
3000
3000
0000
0000
0000
ENDCHAR
STARTCHAR C003B
ENCODING -1 59
SWIDTH 429 0
DWIDTH 6 0
BBX 16 14 0 -3
BITMAP
0000
0000
0000
0000
0C00
0C00
0000
0000
0000
3800
1800
1800
7000
0000
ENDCHAR
STARTCHAR C003C
ENCODING -1 60
SWIDTH 643 0
DWIDTH 9 0
BBX 16 14 0 -3
BITMAP
0000
0180
0300
0600
0C00
1800
3000
3000
1800
0C00
0600
0000
0000
0000
ENDCHAR
STARTCHAR C003D
ENCODING -1 61
SWIDTH 643 0
DWIDTH 9 0
BBX 16 14 0 -3
BITMAP
0000
0000
0000
0000
0000
0000
1F80
0000
3F00
0000
0000
0000
0000
0000
ENDCHAR
STARTCHAR C003E
ENCODING -1 62
SWIDTH 643 0
DWIDTH 9 0
BBX 16 14 0 -3
BITMAP
0000
0C00
0600
0300
0180
0180
0300
0600
0C00
1800
3000
0000
0000
0000
ENDCHAR
STARTCHAR C003F
ENCODING -1 63
SWIDTH 643 0
DWIDTH 9 0
BBX 16 14 0 -3
BITMAP
0000
0F00
1980
3180
0180
0700
0C00
0C00
0000
1800
1800
0000
0000
0000
ENDCHAR
STARTCHAR C0040
ENCODING -1 64
SWIDTH 1071 0
DWIDTH 15 0
BBX 16 14 0 -3
BITMAP
0000
03F8
0E0C
19F6
1B76
3666
3666
36EC
33F8
1800
0FF8
0000
0000
0000
ENDCHAR
STARTCHAR C0041
ENCODING -1 65
SWIDTH 714 0
DWIDTH 10 0
BBX 16 14 0 -3
BITMAP
0000
0380
0780
0780
0D80
0D80
1980
3180
3F80
6180
6180
0000
0000
0000
ENDCHAR
STARTCHAR C0042
ENCODING -1 66
SWIDTH 714 0
DWIDTH 10 0
BBX 16 14 0 -3
BITMAP
0000
1F80
18C0
18C0
30C0
3F80
30C0
30C0
60C0
6180
7F00
0000
0000
0000
ENDCHAR
STARTCHAR C0043
ENCODING -1 67
SWIDTH 714 0
DWIDTH 10 0
BBX 16 14 0 -3
BITMAP
0000
0780
1CC0
30C0
3000
6000
6000
60C0
60C0
3180
1F00
0000
0000
0000
ENDCHAR
STARTCHAR C0044
ENCODING -1 68
SWIDTH 786 0
DWIDTH 11 0
BBX 16 14 0 -3
BITMAP
0000
1F80
18C0
1860
3060
3060
3060
30C0
60C0
6380
7E00
0000
0000
0000
ENDCHAR
STARTCHAR C0045
ENCODING -1 69
SWIDTH 786 0
DWIDTH 11 0
BBX 16 14 0 -3
BITMAP
0000
1FE0
1800
1800
3000
3F80
3000
3000
6000
6000
7F80
0000
0000
0000
ENDCHAR
STARTCHAR C0046
ENCODING -1 70
SWIDTH 643 0
DWIDTH 9 0
BBX 16 14 0 -3
BITMAP
0000
1FC0
1800
1800
3000
3F00
3000
3000
6000
6000
6000
0000
0000
0000
ENDCHAR
STARTCHAR C0047
ENCODING -1 71
SWIDTH 786 0
DWIDTH 11 0
BBX 16 14 0 -3
BITMAP
0000
07C0
1C60
3060
3000
6000
63E0
6060
6060
31C0
1FC0
0000
0000
0000
ENDCHAR
STARTCHAR C0048
ENCODING -1 72
SWIDTH 786 0
DWIDTH 11 0
BBX 16 14 0 -3
BITMAP
0000
1860
1860
1860
30C0
3FC0
30C0
30C0
6180
6180
6180
0000
0000
0000
ENDCHAR
STARTCHAR C0049
ENCODING -1 73
SWIDTH 357 0
DWIDTH 5 0
BBX 16 14 0 -3
BITMAP
0000
1800
1800
1800
3000
3000
3000
3000
6000
6000
6000
0000
0000
0000
ENDCHAR
STARTCHAR C004A
ENCODING -1 74
SWIDTH 571 0
DWIDTH 8 0
BBX 16 14 0 -3
BITMAP
0000
0180
0180
0180
0300
0300
0300
0300
6600
6600
3C00
0000
0000
0000
ENDCHAR
STARTCHAR C004B
ENCODING -1 75
SWIDTH 714 0
DWIDTH 10 0
BBX 16 14 0 -3
BITMAP
0000
18C0
1980
1B00
3600
3C00
3C00
3600
6600
6300
6300
0000
0000
0000
ENDCHAR
STARTCHAR C004C
ENCODING -1 76
SWIDTH 643 0
DWIDTH 9 0
BBX 16 14 0 -3
BITMAP
0000
1800
1800
1800
3000
3000
3000
3000
6000
6000
7F80
0000
0000
0000
ENDCHAR
STARTCHAR C004D
ENCODING -1 77
SWIDTH 929 0
DWIDTH 13 0
BBX 16 14 0 -3
BITMAP
0000
1C1C
1C3C
1C3C
3C78
3C78
3CD8
3798
67B0
6730
6730
0000
0000
0000
ENDCHAR
STARTCHAR C004E
ENCODING -1 78
SWIDTH 857 0
DWIDTH 12 0
BBX 16 14 0 -3
BITMAP
0000
1C30
1C30
1E30
3660
3660
3360
3360
63C0
61C0
61C0
0000
0000
0000
ENDCHAR
STARTCHAR C004F
ENCODING -1 79
SWIDTH 786 0
DWIDTH 11 0
BBX 16 14 0 -3
BITMAP
0000
0F80
38C0
3060
6060
6060
6060
6060
60C0
31C0
1F00
0000
0000
0000
ENDCHAR
STARTCHAR C0050
ENCODING -1 80
SWIDTH 714 0
DWIDTH 10 0
BBX 16 14 0 -3
BITMAP
0000
1F80
18C0
18C0
30C0
3180
3F00
3000
6000
6000
6000
0000
0000
0000
ENDCHAR
STARTCHAR C0051
ENCODING -1 81
SWIDTH 786 0
DWIDTH 11 0
BBX 16 14 0 -3
BITMAP
0000
0F80
38C0
3060
6060
6060
6060
6060
66C0
33C0
1F80
00C0
0000
0000
ENDCHAR
STARTCHAR C0052
ENCODING -1 82
SWIDTH 786 0
DWIDTH 11 0
BBX 16 14 0 -3
BITMAP
0000
1FC0
1860
1860
30C0
3F80
30C0
30C0
6180
6180
6180
0000
0000
0000
ENDCHAR
STARTCHAR C0053
ENCODING -1 83
SWIDTH 714 0
DWIDTH 10 0
BBX 16 14 0 -3
BITMAP
0000
0F80
18C0
30C0
3000
1F00
0180
00C0
60C0
6180
3F00
0000
0000
0000
ENDCHAR
STARTCHAR C0054
ENCODING -1 84
SWIDTH 786 0
DWIDTH 11 0
BBX 16 14 0 -3
BITMAP
0000
3FF0
0300
0300
0600
0600
0600
0600
0C00
0C00
0C00
0000
0000
0000
ENDCHAR
STARTCHAR C0055
ENCODING -1 85
SWIDTH 786 0
DWIDTH 11 0
BBX 16 14 0 -3
BITMAP
0000
1860
1860
1860
30C0
30C0
30C0
60C0
6180
6180
3F00
0000
0000
0000
ENDCHAR
STARTCHAR C0056
ENCODING -1 86
SWIDTH 786 0
DWIDTH 11 0
BBX 16 14 0 -3
BITMAP
0000
3060
3060
30C0
3180
3180
3300
3600
3600
3C00
3800
0000
0000
0000
ENDCHAR
STARTCHAR C0057
ENCODING -1 87
SWIDTH 1071 0
DWIDTH 15 0
BBX 16 14 0 -3
BITMAP
0000
31C6
31C6
33CC
33CC
36D8
36D8
3CF0
3CF0
38E0
38E0
0000
0000
0000
ENDCHAR
STARTCHAR C0058
ENCODING -1 88
SWIDTH 786 0
DWIDTH 11 0
BBX 16 14 0 -3
BITMAP
0000
1860
18C0
0D80
0F00
0600
0600
0F00
1B00
3180
6180
0000
0000
0000
ENDCHAR
STARTCHAR C0059
ENCODING -1 89
SWIDTH 786 0
DWIDTH 11 0
BBX 16 14 0 -3
BITMAP
0000
6060
60C0
3180
3300
1E00
1C00
1800
1800
3000
3000
0000
0000
0000
ENDCHAR
STARTCHAR C005A
ENCODING -1 90
SWIDTH 714 0
DWIDTH 10 0
BBX 16 14 0 -3
BITMAP
0000
3FC0
00C0
0180
0300
0600
0C00
1800
3000
6000
7F80
0000
0000
0000
ENDCHAR
STARTCHAR C005B
ENCODING -1 91
SWIDTH 714 0
DWIDTH 10 0
BBX 16 14 0 -3
BITMAP
0000
07C0
0600
0600
0C00
0C00
0C00
1800
1800
1800
1800
3000
3000
3E00
ENDCHAR
STARTCHAR C005C
ENCODING -1 92
SWIDTH 571 0
DWIDTH 8 0
BBX 16 14 0 -3
BITMAP
0000
3000
3000
1800
1800
0C00
0C00
0600
0600
0300
0300
0000
0000
0000
ENDCHAR
STARTCHAR C005D
ENCODING -1 93
SWIDTH 714 0
DWIDTH 10 0
BBX 16 14 0 -3
BITMAP
0000
07C0
00C0
00C0
0180
0180
0180
0300
0300
0300
0300
0600
0600
3E00
ENDCHAR
STARTCHAR C005E
ENCODING -1 94
SWIDTH 571 0
DWIDTH 8 0
BBX 16 14 0 -3
BITMAP
0000
0000
0000
0C00
1E00
3F00
0C00
1800
1800
1800
0000
0000
0000
0000
ENDCHAR
STARTCHAR C005F
ENCODING -1 95
SWIDTH 714 0
DWIDTH 10 0
BBX 16 14 0 -3
BITMAP
0000
0000
0000
0000
0600
0C00
3FC0
1800
0C00
0000
0000
0000
0000
0000
ENDCHAR
STARTCHAR C0060
ENCODING -1 96
SWIDTH 71 0
DWIDTH 1 0
BBX 16 14 0 -3
BITMAP
0000
0000
0000
0000
0000
0000
0000
0000
0000
0000
0000
0000
0000
0000
ENDCHAR
STARTCHAR C0061
ENCODING -1 97
SWIDTH 643 0
DWIDTH 9 0
BBX 16 14 0 -3
BITMAP
0000
0000
0000
0000
1F00
3180
0180
3F80
6300
6300
3F80
0000
0000
0000
ENDCHAR
STARTCHAR C0062
ENCODING -1 98
SWIDTH 643 0
DWIDTH 9 0
BBX 16 14 0 -3
BITMAP
0000
1800
1800
1800
3F00
3180
3180
3180
6180
7300
7E00
0000
0000
0000
ENDCHAR
STARTCHAR C0063
ENCODING -1 99
SWIDTH 643 0
DWIDTH 9 0
BBX 16 14 0 -3
BITMAP
0000
0000
0000
0000
1F00
3180
6180
6000
6300
6300
3E00
0000
0000
0000
ENDCHAR
STARTCHAR C0064
ENCODING -1 100
SWIDTH 643 0
DWIDTH 9 0
BBX 16 14 0 -3
BITMAP
0000
00C0
00C0
00C0
0F80
3980
3180
6180
6300
6700
3F00
0000
0000
0000
ENDCHAR
STARTCHAR C0065
ENCODING -1 101
SWIDTH 643 0
DWIDTH 9 0
BBX 16 14 0 -3
BITMAP
0000
0000
0000
0000
0F00
3980
3180
7F80
6000
6300
3E00
0000
0000
0000
ENDCHAR
STARTCHAR C0066
ENCODING -1 102
SWIDTH 500 0
DWIDTH 7 0
BBX 16 14 0 -3
BITMAP
0000
0F00
1800
1800
7E00
3000
3000
3000
6000
6000
6000
0000
0000
0000
ENDCHAR
STARTCHAR C0067
ENCODING -1 103
SWIDTH 643 0
DWIDTH 9 0
BBX 16 14 0 -3
BITMAP
0000
0000
0000
0000
1F80
3380
6180
6300
6300
6300
3F00
0600
E600
7C00
ENDCHAR
STARTCHAR C0068
ENCODING -1 104
SWIDTH 643 0
DWIDTH 9 0
BBX 16 14 0 -3
BITMAP
0000
1800
1800
1800
3F00
3180
3180
3180
6180
6300
6300
0000
0000
0000
ENDCHAR
STARTCHAR C0069
ENCODING -1 105
SWIDTH 357 0
DWIDTH 5 0
BBX 16 14 0 -3
BITMAP
0000
1800
1800
0000
3000
3000
3000
3000
6000
6000
6000
0000
0000
0000
ENDCHAR
STARTCHAR C006A
ENCODING -1 106
SWIDTH 429 0
DWIDTH 6 0
BBX 16 14 0 -3
BITMAP
0000
0C00
0C00
0000
1800
1800
1800
1800
3000
3000
3000
3000
E000
0000
ENDCHAR
STARTCHAR C006B
ENCODING -1 107
SWIDTH 571 0
DWIDTH 8 0
BBX 16 14 0 -3
BITMAP
0000
1800
1800
1800
3300
3600
3C00
3E00
6600
6300
6300
0000
0000
0000
ENDCHAR
STARTCHAR C006C
ENCODING -1 108
SWIDTH 357 0
DWIDTH 5 0
BBX 16 14 0 -3
BITMAP
0000
1800
1800
1800
3000
3000
3000
3000
6000
6000
6000
0000
0000
0000
ENDCHAR
STARTCHAR C006D
ENCODING -1 109
SWIDTH 857 0
DWIDTH 12 0
BBX 16 14 0 -3
BITMAP
0000
0000
0000
0000
3FE0
3BB0
3330
3330
6330
6660
6660
0000
0000
0000
ENDCHAR
STARTCHAR C006E
ENCODING -1 110
SWIDTH 643 0
DWIDTH 9 0
BBX 16 14 0 -3
BITMAP
0000
0000
0000
0000
3F00
3980
3180
3180
6180
6300
6300
0000
0000
0000
ENDCHAR
STARTCHAR C006F
ENCODING -1 111
SWIDTH 643 0
DWIDTH 9 0
BBX 16 14 0 -3
BITMAP
0000
0000
0000
0000
1F00
3180
6180
6180
6180
6300
3E00
0000
0000
0000
ENDCHAR
STARTCHAR C0070
ENCODING -1 112
SWIDTH 643 0
DWIDTH 9 0
BBX 16 14 0 -3
BITMAP
0000
0000
0000
0000
3F00
3980
3180
6180
6180
6300
7E00
C000
C000
C000
ENDCHAR
STARTCHAR C0071
ENCODING -1 113
SWIDTH 643 0
DWIDTH 9 0
BBX 16 14 0 -3
BITMAP
0000
0000
0000
0000
1F80
3380
6180
6300
6300
6300
3F00
0600
0600
0600
ENDCHAR
STARTCHAR C0072
ENCODING -1 114
SWIDTH 500 0
DWIDTH 7 0
BBX 16 14 0 -3
BITMAP
0000
0000
0000
0000
3F00
3800
3000
3000
6000
6000
6000
0000
0000
0000
ENDCHAR
STARTCHAR C0073
ENCODING -1 115
SWIDTH 571 0
DWIDTH 8 0
BBX 16 14 0 -3
BITMAP
0000
0000
0000
0000
1E00
3300
3000
1E00
6300
6300
3E00
0000
0000
0000
ENDCHAR
STARTCHAR C0074
ENCODING -1 116
SWIDTH 571 0
DWIDTH 8 0
BBX 16 14 0 -3
BITMAP
0000
0000
0C00
0C00
3F00
1800
1800
1800
3000
3000
1E00
0000
0000
0000
ENDCHAR
STARTCHAR C0075
ENCODING -1 117
SWIDTH 643 0
DWIDTH 9 0
BBX 16 14 0 -3
BITMAP
0000
0000
0000
0000
3180
3180
3180
6300
6300
6700
3F00
0000
0000
0000
ENDCHAR
STARTCHAR C0076
ENCODING -1 118
SWIDTH 571 0
DWIDTH 8 0
BBX 16 14 0 -3
BITMAP
0000
0000
0000
0000
3300
3300
3600
3600
3C00
3C00
3800
0000
0000
0000
ENDCHAR
STARTCHAR C0077
ENCODING -1 119
SWIDTH 929 0
DWIDTH 13 0
BBX 16 14 0 -3
BITMAP
0000
0000
0000
0000
3398
3398
37B0
37B0
3DE0
3DE0
39C0
0000
0000
0000
ENDCHAR
STARTCHAR C0078
ENCODING -1 120
SWIDTH 643 0
DWIDTH 9 0
BBX 16 14 0 -3
BITMAP
0000
0000
0000
0000
3180
3300
1E00
0C00
1E00
3300
6300
0000
0000
0000
ENDCHAR
STARTCHAR C0079
ENCODING -1 121
SWIDTH 643 0
DWIDTH 9 0
BBX 16 14 0 -3
BITMAP
0000
0000
0000
0000
6180
6180
3300
3300
1E00
1E00
0C00
0C00
D800
7000
ENDCHAR
STARTCHAR C007A
ENCODING -1 122
SWIDTH 643 0
DWIDTH 9 0
BBX 16 14 0 -3
BITMAP
0000
0000
0000
0000
3F80
0300
0600
0C00
1800
3000
7F00
0000
0000
0000
ENDCHAR
STARTCHAR C007B
ENCODING -1 123
SWIDTH 714 0
DWIDTH 10 0
BBX 16 14 0 -3
BITMAP
0000
01C0
0300
0600
0600
0600
0C00
3800
0C00
0C00
1800
1800
1800
0E00
ENDCHAR
STARTCHAR C007C
ENCODING -1 124
SWIDTH 429 0
DWIDTH 6 0
BBX 16 14 0 -3
BITMAP
0000
0C00
0C00
0C00
0C00
1800
1800
1800
1800
3000
3000
3000
3000
0000
ENDCHAR
STARTCHAR C007D
ENCODING -1 125
SWIDTH 714 0
DWIDTH 10 0
BBX 16 14 0 -3
BITMAP
0000
0700
0180
0180
0180
0300
0300
01C0
0300
0600
0600
0600
0C00
3800
ENDCHAR
STARTCHAR C007E
ENCODING -1 126
SWIDTH 714 0
DWIDTH 10 0
BBX 16 14 0 -3
BITMAP
0000
0000
0000
0000
1CC0
36C0
3380
0000
0000
0000
0000
0000
0000
0000
ENDCHAR
STARTCHAR C007F
ENCODING -1 127
SWIDTH 71 0
DWIDTH 1 0
BBX 16 14 0 -3
BITMAP
0000
0000
0000
0000
0000
0000
0000
0000
0000
0000
0000
0000
0000
0000
ENDCHAR
ENDFONT
